<svg width="45" height="23" viewBox="0 0 45 23" fill="none" xmlns="http://www.w3.org/2000/svg">
<path d="M1.40401 18.4334C1.20282 18.1099 0.934563 17.5931 0.768873 17.2104C-0.197647 14.9697 -0.241042 12.65 0.571624 10.425C1.46714 7.9831 3.17926 6.11712 5.39239 5.16243C8.1736 3.96711 11.2467 4.19986 13.9135 5.7818C15.6059 6.75226 16.8052 8.25136 17.7165 10.3738C17.8309 10.646 17.9335 10.9339 18.0361 11.1825L1.40401 18.4334ZM6.95855 8.7642C4.98211 9.61237 3.96431 11.4665 4.17734 13.6363L12.5407 10.0345C11.1008 8.34604 9.23086 7.78585 6.95855 8.7642ZM13.5822 16.5989C13.5782 16.5989 13.5782 16.6029 13.5782 16.6029L13.4046 16.4845C12.9036 17.2933 12.1265 17.9521 11.1442 18.3781C9.27425 19.1908 7.5424 18.9817 6.29579 17.8889L6.18139 18.0625C6.18139 18.0625 6.18139 18.0586 6.17744 18.0586L4.05504 21.2343C4.58367 21.6012 5.1478 21.9089 5.73955 22.1574C8.08287 23.1318 10.4814 23.0845 12.8445 22.0588C14.5526 21.3171 15.8939 20.1889 16.8092 18.7568L13.5822 16.5989ZM23.847 0.491577V18.1414L26.5927 19.2539L25.0345 22.8912L22.0047 21.6288C21.3262 21.3329 20.8607 20.8832 20.5135 20.3743C20.1782 19.8575 19.9296 19.1434 19.9296 18.1888V0.491577H23.847ZM30.9559 13.6481C30.9559 12.1451 31.6226 10.7959 32.6719 9.88063L29.8552 6.74043C27.9458 8.42888 26.7426 10.8945 26.7426 13.6402C26.7387 16.3899 27.9419 18.8594 29.8473 20.5479L32.6601 17.4077C31.6147 16.4885 30.9559 15.1472 30.9559 13.6481ZM35.9581 18.6543C35.4058 18.6543 34.8693 18.5596 34.3722 18.3939L33.027 22.3902C33.9462 22.6979 34.9285 22.8675 35.9542 22.8675C40.412 22.8715 44.1321 19.7076 44.9961 15.5062L40.8617 14.662C40.3923 16.9461 38.3764 18.6582 35.9581 18.6543ZM35.9699 4.42867C34.9482 4.42867 33.9659 4.59436 33.0467 4.89812L34.3801 8.89833C34.8811 8.73264 35.4137 8.64191 35.966 8.64191C38.3882 8.64585 40.408 10.3659 40.8657 12.654L45 11.8176C44.1518 7.60832 40.4317 4.43261 35.9699 4.42867Z" fill="url(#paint0_linear_1701_235)"/>
<defs>
<linearGradient id="paint0_linear_1701_235" x1="22.5" y1="0.491577" x2="22.5" y2="22.8912" gradientUnits="userSpaceOnUse">
<stop stop-color="white"/>
<stop offset="1" stop-color="white" stop-opacity="0.75"/>
</linearGradient>
</defs>
</svg>
